<?xml version="1.0" standalone="no"?>
<!DOCTYPE svg PUBLIC "-//W3C//DTD SVG 20010904//EN"
 "http://www.w3.org/TR/2001/REC-SVG-20010904/DTD/svg10.dtd">
<svg version="1.0" xmlns="http://www.w3.org/2000/svg"
 width="275.000000pt" height="183.000000pt" viewBox="0 0 275.000000 183.000000"
 preserveAspectRatio="xMidYMid meet">
<metadata>
Created by potrace 1.16, written by Peter Selinger 2001-2019
</metadata>
<g transform="translate(0.000000,183.000000) scale(0.100000,-0.100000)"
fill="#000000" stroke="none">
<path d="M0 1563 c1 -161 5 -262 10 -253 5 8 12 11 16 8 4 -4 -1 -19 -10 -32
-14 -22 -16 -61 -15 -298 1 -150 4 -259 8 -243 7 30 7 30 19 -15 6 -25 13 -56
16 -70 2 -15 4 -8 4 15 0 82 2 95 15 92 7 -1 13 13 15 38 4 49 21 71 24 30 0
-17 1 -36 1 -42 -1 -7 4 -13 9 -13 6 0 5 -6 -2 -15 -7 -8 -19 -15 -26 -15 -20
0 -28 -46 -18 -108 9 -54 28 -81 32 -45 1 10 4 35 8 56 6 33 4 37 -16 37 -13
0 -20 5 -17 13 2 6 11 11 20 9 8 -1 18 2 22 8 3 5 1 10 -5 10 -6 0 -8 5 -5 10
4 6 11 8 16 5 5 -3 6 2 2 11 -5 13 -3 15 8 9 12 -7 12 -6 1 7 -10 13 -9 16 10
21 12 4 24 4 27 2 2 -3 -1 -5 -7 -5 -13 0 -7 -71 9 -100 4 -9 3 -23 -2 -33 -7
-12 -6 -17 2 -17 8 0 8 -4 -1 -15 -9 -10 -9 -15 -1 -15 6 0 11 -8 12 -17 1
-27 19 38 21 75 1 21 8 38 20 45 10 7 18 16 18 21 0 21 43 96 54 96 16 0 56
42 56 58 0 7 13 -1 30 -18 16 -16 34 -30 40 -30 5 0 10 -10 10 -21 0 -17 -5
-20 -25 -17 -22 5 -25 3 -19 -16 4 -11 14 -27 23 -34 9 -8 11 -11 5 -8 -6 3
-16 -6 -22 -19 -7 -15 -8 -25 -2 -25 6 0 10 -4 10 -8 0 -4 -9 -8 -20 -8 -13 0
-19 5 -16 13 3 7 -1 13 -8 13 -9 0 -12 -9 -8 -27 4 -27 4 -27 -11 -8 -11 14
-12 25 -4 42 5 12 14 20 18 17 5 -3 6 2 3 10 -9 22 -19 20 -32 -6 -6 -13 -11
-17 -11 -10 -1 7 -8 20 -16 28 -13 14 -15 13 -15 -5 0 -12 4 -21 10 -21 5 0 9
-3 8 -7 0 -5 2 -15 5 -23 3 -8 7 -26 9 -40 2 -19 10 -26 30 -28 31 -4 71 15
63 29 -4 5 1 9 9 9 9 0 16 5 16 11 0 6 7 4 15 -5 22 -22 19 -45 -5 -39 -16 4
-20 0 -20 -21 0 -14 -4 -26 -10 -26 -5 0 -7 8 -4 17 5 15 4 15 -4 3 -13 -18
-9 -25 26 -43 15 -8 50 -27 77 -42 30 -16 67 -28 91 -29 34 -1 38 -3 25 -13
-14 -11 -12 -12 11 -13 15 0 33 -6 40 -14 8 -7 42 -28 76 -46 34 -19 60 -36
57 -38 -3 -3 5 -12 18 -21 23 -17 26 -18 55 -20 13 -1 14 -3 4 -10 -12 -7 -11
-14 2 -38 8 -17 24 -33 35 -36 14 -3 18 -11 14 -26 -4 -16 -1 -21 15 -21 12 0
26 -9 32 -19 13 -26 13 -31 -5 -31 -8 0 -15 -5 -15 -12 0 -6 3 -8 6 -5 12 12
44 -13 44 -34 0 -12 5 -19 12 -17 7 3 19 -2 27 -10 12 -11 12 -18 3 -33 -7
-10 -8 -19 -3 -19 6 0 13 5 16 10 8 13 35 13 35 0 0 -6 -10 -15 -22 -20 -16
-6 11 -9 88 -9 l112 -1 -2 28 c-1 31 -26 62 -48 62 -8 -1 -4 -8 10 -19 21 -19
22 -51 0 -51 -5 0 -7 3 -5 8 3 4 1 18 -4 31 -7 16 -14 21 -27 17 -14 -5 -13
-3 3 10 14 12 16 18 7 21 -10 4 -10 8 0 21 10 12 10 14 0 8 -7 -4 -12 -2 -12
6 0 10 -2 10 -9 -1 -6 -10 -13 -11 -29 -2 -29 15 -35 14 -27 -6 4 -13 3 -15
-5 -7 -11 11 -4 44 11 44 4 0 6 7 2 17 -5 14 -8 13 -15 -7 -9 -25 -18 -22 -22
7 -2 12 -11 17 -25 16 -15 -2 -21 3 -21 16 0 19 -14 22 -37 8 -10 -6 -11 0 -6
24 4 21 3 30 -4 26 -12 -7 -24 39 -16 60 3 7 13 13 23 13 20 0 34 26 23 43 -4
7 0 6 10 -1 15 -12 15 -16 1 -37 -14 -21 -13 -23 10 -39 14 -9 32 -16 40 -16
9 0 13 -6 10 -13 -3 -8 5 -13 20 -15 18 -1 23 3 21 16 -1 9 3 27 11 39 11 18
11 22 -2 27 -9 3 -23 6 -32 6 -15 0 -15 -2 -2 -10 9 -6 10 -10 3 -10 -18 0
-26 19 -13 35 9 11 25 7 93 -28 l83 -42 -4 -152 -4 -153 31 0 31 0 0 136 0
136 61 -54 c34 -29 105 -90 158 -136 l96 -82 73 2 c39 1 72 3 72 4 0 1 -33 21
-72 45 -40 23 -81 49 -90 57 -11 9 -18 11 -18 4 0 -6 33 -31 73 -57 39 -26 64
-44 55 -41 -49 15 -353 242 -353 263 0 6 -4 15 -9 20 -5 5 -6 3 -2 -5 13 -22
-8 -13 -42 19 -18 17 -31 33 -28 36 3 3 15 -6 28 -19 13 -13 17 -17 11 -8 -7
9 -13 24 -13 33 0 19 -56 25 -62 6 -2 -6 -45 11 -102 41 -120 63 -171 94 -138
85 13 -4 22 -2 22 4 0 6 8 11 18 11 14 1 15 2 2 9 -16 10 -70 8 -87 -2 -7 -5
-101 17 -121 29 -8 4 13 34 28 39 11 4 17 12 13 21 -8 23 17 16 38 -10 10 -13
30 -27 44 -30 14 -4 24 -10 21 -14 -2 -4 6 -7 19 -7 27 2 55 22 55 39 0 6 -5
4 -10 -4 -8 -13 -10 -13 -10 2 0 9 5 20 10 23 18 11 11 35 -10 35 -11 0 -20 5
-20 11 0 6 -7 9 -15 5 -8 -3 -15 -1 -15 3 0 12 28 22 32 12 2 -5 13 -12 26
-15 26 -9 29 5 6 28 -14 15 -14 16 5 16 11 0 22 4 25 9 4 5 -7 7 -24 5 -23 -4
-30 -1 -30 10 0 14 -13 20 -46 19 -6 0 -9 8 -7 18 3 10 9 16 14 13 5 -3 9 1 9
8 0 8 -11 15 -25 16 -13 1 -30 3 -37 4 -12 3 -14 -2 -17 -46 -1 -16 -3 -17
-18 -5 -14 12 -16 12 -8 0 6 -11 4 -13 -8 -8 -10 3 -17 4 -17 2 0 -10 26 -61
37 -73 13 -13 8 -35 -5 -29 -45 21 -61 33 -65 49 -3 11 -10 17 -16 13 -6 -3
-11 -2 -11 4 0 5 6 12 13 15 10 5 10 7 0 12 -7 3 -13 10 -13 15 0 6 5 7 12 3
6 -4 8 -3 5 3 -4 6 -20 13 -37 16 -19 4 -30 13 -30 23 0 11 6 15 19 11 16 -4
18 -1 11 12 -5 9 -11 24 -14 34 -7 21 -38 35 -44 19 -2 -7 -12 -12 -23 -12
-12 0 -16 -5 -13 -15 4 -8 1 -15 -5 -15 -6 0 -11 9 -11 20 0 12 7 20 18 20 14
0 15 2 2 10 -8 5 -21 10 -28 10 -18 0 -6 -60 15 -77 12 -9 11 -13 -8 -26 -23
-17 -49 -13 -49 8 0 9 -13 12 -40 10 -24 -1 -40 2 -40 9 0 6 -7 3 -15 -7 -18
-25 -55 -14 -55 16 0 14 3 18 8 10 12 -18 137 -11 137 8 0 8 -12 15 -27 17
-16 2 -28 -1 -28 -7 0 -5 -11 -9 -25 -8 -28 2 -34 22 -5 21 10 0 17 3 14 8 -3
4 -12 8 -21 8 -10 0 -13 6 -9 16 4 10 2 13 -6 8 -8 -5 -9 1 -4 20 5 19 2 28
-10 33 -13 5 -13 8 -2 15 10 7 10 11 0 15 -6 2 -12 14 -11 26 0 21 1 21 8 3 5
-14 10 -16 15 -8 4 7 4 12 0 12 -3 0 0 8 7 17 8 9 9 14 3 10 -17 -10 -35 16
-40 59 -2 20 -7 41 -10 45 -3 5 0 9 5 9 6 0 11 7 11 15 0 22 -18 18 -25 -5 -3
-11 -11 -20 -16 -20 -12 0 -11 4 3 35 13 30 38 33 45 5 7 -28 23 -25 23 4 0
14 5 28 11 32 15 9 31 -18 19 -30 -6 -6 -10 -20 -10 -33 0 -12 -9 -38 -20 -58
-24 -43 -25 -52 -3 -34 9 8 14 9 10 3 -7 -13 17 -27 27 -16 4 3 23 12 44 19
30 10 39 10 47 -1 6 -7 16 -11 24 -8 8 3 11 0 7 -7 -4 -6 -1 -14 8 -17 8 -3
12 -12 9 -20 -3 -7 2 -17 11 -20 9 -3 16 -17 16 -31 0 -22 1 -23 16 -9 8 9 19
14 24 11 5 -3 0 12 -10 32 -12 25 -15 42 -9 49 7 8 0 15 -22 23 -43 15 -45 14
-18 -9 l24 -19 -24 -1 c-13 0 -21 3 -18 7 4 3 2 12 -4 19 -9 10 -7 15 5 20 8
3 21 4 28 2 11 -4 38 14 38 25 0 3 -13 10 -30 17 -35 14 -36 18 -12 37 16 13
15 14 -5 8 -12 -3 -24 -1 -28 5 -3 5 1 10 9 10 8 0 20 9 26 20 6 11 16 17 25
14 8 -4 15 -1 15 5 0 6 6 8 14 5 16 -6 41 -87 33 -108 -4 -9 0 -22 8 -30 8 -8
15 -19 15 -24 0 -15 31 -24 44 -13 16 13 66 -32 66 -59 0 -22 16 -35 25 -20
14 23 105 -1 105 -27 0 -7 5 -13 10 -13 6 0 10 -9 10 -19 0 -11 8 -27 17 -36
13 -13 14 -21 5 -35 -9 -14 -7 -21 8 -35 10 -9 21 -37 25 -63 6 -37 9 -43 16
-27 7 17 8 16 8 -8 1 -19 -3 -26 -10 -21 -9 5 -10 -1 -5 -20 5 -21 3 -26 -11
-26 -15 0 -16 -2 -3 -10 13 -8 12 -10 -2 -10 -23 0 -23 -19 -1 -35 9 -7 13
-17 9 -24 -6 -9 -11 -9 -23 1 -13 10 -15 9 -11 -7 3 -16 10 -19 33 -17 30 4
30 4 10 -16 -11 -11 -23 -18 -26 -16 -4 2 -10 -7 -13 -21 -5 -19 -13 -25 -34
-25 l-27 0 32 -21 c25 -16 36 -18 50 -10 14 8 15 10 3 11 -13 0 -13 1 0 10 9
5 19 5 27 -2 17 -13 18 14 2 43 -9 19 -9 19 10 10 27 -15 36 -14 22 3 -10 11
-8 17 6 25 10 6 13 11 7 11 -7 0 -9 11 -6 26 3 20 9 24 24 21 11 -3 26 -3 34
0 20 8 5 25 -16 18 -10 -3 -21 -1 -24 4 -4 5 21 12 59 16 36 4 68 11 71 16 3
5 39 9 80 9 45 0 73 4 69 9 -8 15 253 18 295 5 28 -10 5 -11 -125 -8 -144 4
-158 2 -141 -11 19 -14 19 -15 -10 -16 -22 0 -25 -2 -11 -8 10 -3 51 -3 90 1
76 8 327 9 339 2 4 -3 3 -16 -2 -30 -8 -20 -6 -26 8 -32 21 -9 28 -34 7 -26
-17 7 -21 -11 -5 -21 5 -3 15 -15 21 -26 9 -17 7 -20 -8 -17 -10 2 -17 -2 -16
-8 1 -7 -7 -20 -17 -29 -26 -24 -25 -35 3 -36 16 -1 18 -2 5 -6 -20 -5 -25
-23 -7 -23 8 0 8 -5 -1 -15 -10 -12 -9 -16 2 -20 11 -4 13 -19 10 -62 -2 -32
0 -53 5 -50 5 3 15 2 23 -4 12 -7 12 -9 -3 -9 -10 0 -15 -5 -12 -11 4 -6 13
-8 21 -5 8 3 14 1 14 -4 0 -6 -7 -10 -15 -10 -8 0 -15 -4 -15 -9 0 -5 -3 -17
-6 -26 -4 -10 -2 -15 6 -13 7 2 15 -3 17 -9 3 -7 0 -13 -6 -13 -6 0 -11 -5
-11 -11 0 -6 6 -9 14 -6 14 6 16 -9 4 -29 -4 -5 -5 -19 -3 -30 2 -10 4 -24 4
-31 1 -9 90 -12 371 -12 l370 -1 0 319 c0 262 -3 321 -14 330 -8 7 -16 8 -19
4 -3 -4 -31 -6 -62 -5 -74 5 -58 20 25 24 l65 3 3 157 c2 143 1 157 -15 161
-17 4 -17 5 0 6 15 1 17 14 17 117 0 87 -4 119 -14 130 -8 8 -18 14 -21 14
-11 0 -44 -44 -45 -57 0 -7 -4 -13 -8 -13 -5 0 -19 -9 -32 -20 -29 -25 -37
-25 -50 0 -13 24 -7 26 14 4 15 -14 16 -14 16 5 0 12 -3 20 -7 20 -19 -3 -31
2 -37 16 -8 22 4 45 24 45 10 0 20 9 23 20 7 27 27 25 27 -3 0 -15 6 -23 19
-24 22 -2 34 30 24 65 -4 18 -8 20 -19 11 -18 -15 -18 -7 1 37 13 32 16 34 30
21 8 -9 15 -20 15 -26 0 -6 5 -11 10 -11 6 0 10 -4 10 -10 0 -14 -27 -12 -33
3 -3 7 -6 5 -6 -5 -1 -10 4 -18 9 -18 6 0 10 -6 10 -14 0 -9 7 -12 20 -9 17 5
20 14 20 63 0 39 -5 64 -15 74 -19 18 -19 26 -1 26 12 0 14 30 15 163 l2 162
-41 13 c-46 14 -90 7 -90 -15 0 -9 -6 -13 -15 -9 -19 7 -123 -88 -131 -120 -4
-13 -12 -24 -19 -24 -7 0 -15 -6 -17 -12 -3 -9 -9 -8 -21 4 -18 18 -7 34 16
23 6 -4 1 3 -13 15 -21 19 -25 20 -28 6 -2 -9 -10 -16 -18 -16 -9 0 -12 -5 -8
-12 5 -7 3 -8 -6 -3 -11 7 -10 10 1 19 25 20 23 46 -5 46 -13 0 -31 6 -38 13
-23 23 -49 28 -64 13 -16 -17 -19 -36 -4 -36 5 0 7 -7 4 -15 -5 -11 -2 -13 9
-9 25 9 35 -43 12 -60 -16 -11 -11 -14 36 -23 63 -13 73 -9 40 18 -13 11 -21
22 -19 25 3 3 12 -1 19 -9 8 -7 20 -12 28 -9 10 3 12 0 8 -11 -4 -11 -2 -14 8
-10 8 3 12 9 9 14 -3 5 2 6 10 3 19 -7 10 -33 -21 -60 -13 -12 -26 -31 -28
-42 -7 -41 -72 -121 -106 -134 -35 -13 -27 115 9 155 15 17 14 18 -6 24 -12 3
-22 13 -23 22 0 10 -4 8 -10 -8 -5 -13 -23 -41 -40 -62 -17 -21 -28 -43 -24
-49 3 -5 1 -19 -6 -31 -7 -14 -14 -18 -18 -11 -4 7 -11 4 -20 -9 -7 -12 -8
-19 -3 -15 5 3 9 -8 9 -25 0 -18 -3 -25 -8 -17 -6 9 -10 8 -15 -5 -3 -9 -11
-17 -17 -17 -6 0 -22 -10 -36 -22 -14 -13 -23 -19 -19 -14 4 5 3 15 -3 22 -8
10 -6 12 10 9 13 -2 19 0 15 6 -3 6 -9 8 -12 5 -3 -3 -11 -1 -18 4 -9 8 -18 1
-35 -27 -13 -21 -27 -41 -31 -44 -5 -3 -10 -19 -11 -36 -1 -17 -5 -29 -9 -27
-10 6 -26 -29 -21 -44 3 -9 -2 -13 -13 -11 -30 3 -54 -11 -54 -33 0 -13 4 -17
13 -11 6 4 14 8 17 9 39 7 60 22 80 54 13 22 26 37 28 35 3 -2 -3 -16 -12 -30
-10 -15 -15 -32 -13 -38 2 -7 -6 -33 -19 -58 -23 -47 -50 -67 -66 -51 -10 10
0 42 13 42 5 0 9 7 9 15 0 8 -3 15 -6 15 -8 0 -44 -41 -44 -49 0 -4 -17 -12
-39 -17 -38 -11 -39 -10 -31 15 5 20 2 30 -15 45 -13 11 -21 26 -18 33 7 18
-12 17 -27 -2 -15 -17 -5 -35 20 -35 10 0 20 -7 24 -15 4 -13 2 -13 -14 -5
-10 5 -40 10 -67 10 -37 0 -51 -5 -61 -20 -7 -12 -18 -17 -29 -13 -9 4 -14 2
-11 -3 3 -5 0 -15 -8 -22 -12 -11 -14 -10 -14 3 0 8 -5 15 -11 15 -6 0 -8 -8
-4 -19 3 -10 1 -29 -4 -42 -7 -18 -10 -20 -10 -6 -1 10 -5 16 -10 13 -5 -3 -8
-14 -6 -24 1 -9 0 -12 -2 -5 -5 15 -33 25 -33 12 0 -6 -4 -7 -10 -4 -5 3 -10
2 -10 -3 0 -5 -8 -8 -18 -7 -25 2 -152 56 -152 65 0 10 -115 56 -162 64 -27 5
-38 12 -38 24 0 10 -5 23 -12 30 -7 7 -8 12 -2 12 13 0 44 -37 37 -44 -4 -3
-1 -6 5 -6 17 0 14 11 -8 39 -13 14 -26 21 -36 17 -13 -5 -14 -9 -5 -20 7 -9
8 -17 3 -20 -13 -8 -26 21 -27 61 -1 39 -79 141 -130 171 -15 8 -16 11 -5 12
9 0 26 -7 39 -17 18 -12 23 -13 19 -2 -2 8 -24 19 -49 26 -24 6 -38 12 -31 13
6 2 18 3 25 4 6 1 18 -3 26 -8 9 -7 8 -1 -4 17 -24 38 -46 48 -128 58 -39 5
-72 11 -74 13 -2 2 -5 20 -6 40 -1 20 -6 36 -10 36 -5 0 -5 5 -1 12 4 6 -1 17
-10 24 -16 11 -16 13 1 33 10 12 18 25 19 29 0 4 4 15 8 25 5 11 2 27 -9 43
-19 30 -13 43 12 23 9 -8 14 -9 10 -2 -4 6 -3 14 2 18 6 3 10 -12 9 -40 0 -25
-4 -45 -8 -45 -4 0 -11 -16 -14 -35 -4 -19 -11 -35 -17 -35 -6 0 -7 -5 -3 -11
10 -16 36 14 37 44 1 14 4 24 6 21 9 -9 42 48 37 64 -4 12 1 26 14 37 11 10
20 26 20 36 0 10 7 24 15 33 21 21 19 26 -14 26 -20 0 -31 -6 -34 -17 -4 -17
-5 -17 -6 -1 -1 16 -31 17 -396 18 l-395 0 0 -267z m693 -20 c5 7 6 -1 3 -23
-4 -19 -11 -39 -18 -45 -8 -7 -9 -6 -6 5 3 8 0 20 -6 26 -15 14 -34 -4 -30
-29 1 -10 -4 -21 -12 -24 -25 -9 -26 3 -5 41 12 20 17 36 13 36 -5 0 -16 -19
-26 -41 -15 -34 -16 -43 -5 -50 7 -4 10 -11 7 -15 -4 -4 -2 -16 4 -27 10 -19
11 -19 20 -2 7 12 7 20 0 24 -7 4 -4 11 8 19 16 10 20 10 19 0 -1 -20 -37 -95
-38 -80 -2 24 -21 2 -21 -23 0 -20 -5 -24 -24 -23 -14 1 -22 6 -20 10 3 5 9 6
13 4 4 -3 8 0 8 7 0 7 4 21 9 31 6 16 4 18 -9 13 -11 -4 -17 -1 -17 9 0 8 3
13 8 11 4 -3 8 6 8 20 2 17 -2 23 -12 19 -8 -3 -23 3 -34 14 -24 24 -25 30 -5
30 8 0 15 5 15 11 0 5 4 8 9 5 5 -3 22 8 39 24 27 26 34 28 63 20 24 -7 35 -6
42 3z m1691 -301 c-5 -23 -1 -30 20 -40 23 -10 26 -9 26 6 0 10 18 26 45 39
51 24 54 20 24 -33 -13 -23 -18 -46 -15 -61 4 -13 2 -23 -4 -23 -6 0 -9 -4 -6
-9 3 -5 -1 -14 -9 -21 -8 -7 -15 -9 -15 -4 0 5 -5 1 -11 -8 -12 -21 -29 -24
-29 -5 0 8 -7 14 -15 14 -8 0 -15 -6 -15 -14 0 -15 -6 -15 -35 -4 -11 5 -33 4
-50 0 l-30 -9 24 19 c14 11 21 23 16 30 -8 13 12 69 32 89 11 11 13 10 13 -8
0 -12 -4 -19 -8 -16 -4 2 -9 -5 -9 -17 -2 -21 -1 -21 17 3 14 17 18 34 14 52
-6 29 1 48 16 48 5 0 7 -13 4 -28z"/>
<path d="M200 555 c0 -13 5 -25 12 -27 6 -2 8 -10 4 -16 -5 -9 -13 -9 -27 -2
-13 7 -19 7 -19 0 0 -5 5 -10 11 -10 6 0 9 -7 5 -15 -3 -8 -1 -15 4 -15 6 0
10 -4 10 -10 0 -5 -7 -7 -15 -4 -9 4 -15 0 -15 -8 0 -8 -6 -22 -12 -31 -12
-16 -13 -14 -14 10 -1 16 -4 42 -7 58 -2 17 -5 34 -6 39 0 5 -4 6 -8 3 -3 -4
-12 1 -19 11 -11 14 -13 14 -14 2 0 -8 10 -21 21 -29 18 -11 19 -15 8 -23 -11
-7 -11 -11 -1 -15 15 -6 16 -43 1 -43 -6 0 -9 6 -6 14 3 8 -1 17 -9 20 -12 5
-14 -3 -9 -45 4 -39 3 -50 -7 -47 -7 3 -14 14 -16 26 -2 14 -11 22 -23 22 -18
0 -20 -5 -15 -45 3 -34 1 -45 -9 -45 -8 0 -12 6 -10 13 3 6 1 32 -4 57 -9 44
-9 43 -10 -27 -1 -51 3 -73 11 -73 9 0 9 -3 0 -12 -7 -7 -12 -43 -12 -93 l0
-80 65 -1 c35 -1 62 3 59 7 -4 8 20 6 79 -6 9 -2 17 1 17 7 0 5 9 7 20 3 10
-3 35 -2 54 3 25 7 36 7 39 -1 2 -6 6 -2 9 10 4 16 2 20 -8 16 -20 -7 -17 7 4
23 15 12 11 14 -33 15 -75 3 -80 4 -78 16 1 6 -11 16 -26 21 -24 8 -32 7 -45
-7 -9 -10 -14 -20 -11 -23 4 -3 -8 -11 -26 -17 -29 -10 -31 -9 -26 9 3 10 0
21 -7 24 -6 2 -3 5 7 5 9 1 17 5 17 10 0 5 23 23 50 40 31 19 48 36 44 43 -4
6 -3 8 4 4 6 -3 13 -2 17 4 3 5 0 10 -7 10 -10 0 -10 2 -1 8 6 4 19 21 27 37
14 26 14 32 1 52 -22 32 -18 42 6 14 11 -13 22 -22 24 -19 8 8 -6 38 -16 38
-6 0 -5 9 1 20 7 14 7 20 0 20 -5 0 -10 7 -10 15 0 8 3 15 8 14 14 -2 52 13
52 22 0 4 -8 8 -17 8 -10 0 -35 4 -55 9 -36 9 -38 9 -38 -13z"/>
</g>
</svg>
