<?xml version="1.0" standalone="no"?>
<!DOCTYPE svg PUBLIC "-//W3C//DTD SVG 20010904//EN"
 "http://www.w3.org/TR/2001/REC-SVG-20010904/DTD/svg10.dtd">
<svg version="1.0" xmlns="http://www.w3.org/2000/svg"
 width="275.000000pt" height="183.000000pt" viewBox="0 0 275.000000 183.000000"
 preserveAspectRatio="xMidYMid meet">
<metadata>
Created by potrace 1.16, written by Peter Selinger 2001-2019
</metadata>
<g transform="translate(0.000000,183.000000) scale(0.100000,-0.100000)"
fill="#000000" stroke="none">
<path d="M11 1816 c-8 -10 -11 -33 -8 -63 6 -64 37 -173 49 -173 5 0 7 9 3 19
-3 11 -8 29 -10 41 -4 22 -4 22 15 5 11 -10 20 -23 20 -29 0 -6 -4 -4 -10 4
-6 9 -8 -3 -7 -37 2 -29 -1 -49 -7 -46 -5 3 -6 0 -4 -8 3 -8 -6 -19 -21 -27
-24 -11 -24 -12 -3 -8 16 3 22 1 19 -8 -3 -7 -1 -19 4 -27 7 -11 9 -10 9 4 0
11 5 17 13 14 6 -2 11 -10 10 -16 -2 -6 2 -10 9 -8 7 1 17 -8 23 -20 5 -13 13
-23 17 -23 5 0 8 -8 8 -17 0 -10 7 -38 16 -62 15 -44 15 -45 -8 -64 -13 -10
-17 -16 -11 -12 17 8 16 0 -2 -35 -20 -38 -28 -122 -12 -132 7 -4 3 -10 -13
-17 l-25 -10 23 0 c25 -1 26 -21 2 -29 -8 -3 -10 0 -5 8 5 8 4 11 -3 6 -6 -3
-15 1 -20 10 -6 10 -12 12 -16 6 -3 -5 1 -13 9 -16 13 -4 13 -9 3 -25 -7 -11
-15 -18 -18 -16 -4 3 -13 -7 -20 -20 -7 -13 -16 -22 -20 -20 -8 5 -9 -1 -16
-103 -5 -70 -4 -81 9 -76 20 7 34 -16 16 -27 -8 -5 -17 -3 -21 4 -4 7 -8 -162
-8 -375 l0 -387 243 2 242 2 3 25 c2 14 8 31 14 37 6 7 7 21 4 30 -4 10 -4 14
0 10 8 -8 34 11 34 25 0 6 -8 4 -17 -3 -9 -8 -14 -9 -10 -3 4 7 -2 14 -13 17
-11 3 -18 1 -14 -4 3 -5 1 -9 -4 -9 -5 0 -14 -10 -20 -22 -9 -21 -11 -18 -11
20 -1 23 -5 42 -9 42 -5 0 -10 27 -11 60 -1 37 2 60 8 60 6 0 11 7 11 15 0 7
8 19 17 24 15 9 15 12 4 20 -16 11 -7 42 17 57 18 12 22 4 25 -56 0 -8 7 -21
16 -28 14 -11 14 -11 -1 -6 -15 5 -18 0 -18 -27 0 -60 12 -109 24 -102 6 3 5
0 -2 -8 -14 -16 -16 -33 -2 -24 6 3 13 -1 16 -9 3 -9 12 -16 20 -16 18 0 18
-21 -1 -46 -20 -26 -19 -43 3 -39 9 1 11 0 4 -2 -8 -3 -11 -11 -8 -20 3 -8 6
-17 6 -19 0 -3 162 -4 360 -3 211 0 358 5 354 10 -3 5 5 9 18 9 19 0 20 -2 8
-11 -18 -12 190 -6 210 6 9 5 11 4 6 -3 -9 -15 28 -16 55 -2 10 6 19 7 19 3 0
-14 114 -13 122 0 6 9 8 9 8 0 0 -7 12 -13 28 -13 21 0 24 2 12 10 -9 6 -10
10 -3 10 6 0 15 -4 18 -10 3 -5 44 -10 91 -10 66 0 86 3 90 15 4 8 10 12 15 9
5 -3 7 -10 4 -15 -4 -5 5 -9 19 -9 14 0 26 5 26 12 0 9 3 9 12 0 15 -15 533
-17 523 -2 -4 6 7 8 27 4 25 -4 29 -3 18 5 -12 9 -10 11 10 11 19 0 22 2 10
10 -18 11 -10 19 23 22 15 1 29 8 31 15 6 14 47 19 45 6 -3 -19 2 -33 11 -33
6 0 9 210 10 564 0 529 -1 565 -18 569 -16 4 -16 5 1 6 16 1 17 23 17 321 l0
320 -464 0 c-457 0 -508 -3 -465 -31 12 -8 12 -11 -1 -19 -20 -13 -30 -13 -30
1 0 5 -5 7 -10 4 -6 -4 -7 -11 -4 -17 4 -7 2 -8 -4 -4 -7 4 -12 2 -12 -3 0 -6
-4 -11 -9 -11 -5 0 -7 18 -4 40 6 39 5 40 -26 40 -18 0 -31 -5 -31 -12 0 -9
-3 -9 -8 -3 -4 6 -40 12 -80 14 -61 2 -76 -1 -89 -16 -12 -15 -14 -15 -9 -1 4
15 -9 17 -124 17 -112 1 -129 -1 -124 -14 4 -8 10 -15 14 -15 8 0 20 -49 26
-108 3 -28 1 -31 -15 -23 -13 8 -18 24 -20 62 -2 54 -11 84 -11 36 0 -15 -4
-27 -9 -27 -5 0 -7 -8 -4 -19 2 -10 -1 -21 -9 -23 -10 -4 -13 8 -13 51 0 31
-1 62 -3 69 -6 18 -19 14 -25 -8 -3 -11 -11 -20 -17 -20 -7 0 -10 8 -8 18 4
13 -1 18 -19 20 -21 2 -22 -1 -13 -18 6 -11 7 -20 3 -19 -19 3 -23 -2 -13 -20
7 -13 7 -22 0 -26 -6 -3 -8 -18 -5 -33 5 -26 5 -26 -5 -3 -7 17 -7 28 1 37 6
8 7 14 2 14 -5 0 -9 9 -10 20 -1 11 2 20 7 20 5 0 7 6 4 14 -5 12 -43 15 -219
15 -197 1 -213 -1 -210 -17 1 -9 0 -11 -2 -4 -6 15 3 13 -72 18 -39 3 -68 0
-77 -7 -8 -6 -14 -7 -14 -2 0 5 -16 10 -35 11 -20 2 -35 -2 -35 -8 0 -6 4 -9
9 -5 6 3 6 -6 1 -25 -7 -24 -6 -30 6 -30 8 0 13 -4 9 -9 -3 -5 -1 -12 4 -16 5
-3 14 3 20 12 8 14 12 16 22 6 11 -11 11 -13 0 -13 -7 0 -9 -5 -6 -10 4 -6 10
-8 14 -6 3 3 7 -4 7 -15 0 -22 -7 -24 -24 -7 -9 9 -11 6 -7 -11 2 -12 2 -28
-2 -36 -6 -17 -43 -20 -43 -4 0 5 -4 7 -10 4 -8 -5 -13 4 -12 25 0 3 -6 11
-14 18 -11 10 -14 10 -14 0 0 -9 -3 -9 -10 2 -8 12 -10 10 -10 -10 0 -33 15
-55 30 -45 9 6 9 3 1 -14 -7 -11 -10 -21 -9 -22 2 0 14 -3 27 -5 33 -6 36 -11
20 -31 -8 -9 -9 -14 -2 -10 6 4 22 2 35 -3 l23 -11 -23 5 c-14 3 -25 -1 -29
-10 -3 -8 -13 -14 -22 -14 -14 0 -14 2 -1 10 13 8 12 10 -2 10 -10 0 -20 -1
-23 -2 -2 -2 -11 7 -19 18 -11 15 -23 20 -41 17 -15 -3 -25 -1 -25 6 0 7 -4 9
-10 6 -5 -3 -10 -1 -10 6 0 6 8 9 20 6 11 -3 18 -1 14 4 -3 5 -12 9 -20 9 -9
0 -14 10 -14 28 0 21 -2 24 -10 12 -9 -13 -10 -13 -10 0 0 8 4 21 9 29 5 8 6
24 1 37 -6 14 -5 26 0 29 6 4 10 11 10 16 0 6 -5 7 -11 3 -7 -4 -10 4 -7 22 2
21 -2 30 -14 32 -15 3 -17 -4 -13 -55 4 -57 4 -57 -11 -30 -9 16 -14 34 -11
40 2 7 -5 21 -15 32 -19 20 -20 20 -12 -10 4 -16 11 -38 16 -47 8 -17 4 -22
-16 -19 -5 1 -2 -9 7 -22 10 -16 12 -28 5 -40 -5 -9 -6 -17 -2 -17 3 0 1 -6
-5 -14 -10 -11 -9 -16 3 -23 10 -5 12 -13 7 -22 -10 -16 -31 -6 -31 15 0 8 -4
14 -9 14 -5 0 -12 15 -16 33 -18 92 -38 167 -46 167 -5 0 -10 -6 -10 -12 -3
-34 -5 -38 -13 -39 -5 0 -14 10 -20 23 -14 27 -57 36 -75 14z m309 -486 c0 -5
-4 -10 -10 -10 -5 0 -10 -7 -10 -16 0 -8 -4 -12 -10 -9 -5 3 -10 -1 -10 -9 0
-10 6 -13 18 -9 9 3 4 -4 -11 -17 -16 -12 -26 -28 -23 -35 2 -7 0 -17 -5 -22
-6 -6 -4 -10 5 -10 8 0 13 4 10 9 -3 4 0 8 6 8 6 0 13 -7 17 -16 3 -9 13 -14
23 -11 12 3 16 -2 15 -17 -1 -12 -8 -21 -16 -21 -8 0 -13 5 -12 12 2 9 -4 10
-21 3 -13 -5 -26 -6 -29 -4 -3 3 -8 0 -13 -7 -5 -8 -3 -10 7 -5 8 4 6 1 -4 -7
-18 -15 -17 -16 4 -22 17 -6 19 -9 8 -16 -11 -7 -11 -9 2 -9 9 0 20 -7 23 -16
10 -25 -2 -30 -20 -8 -8 10 -13 13 -9 7 4 -8 0 -13 -9 -13 -19 0 -21 -21 -3
-39 10 -11 9 -12 -2 -6 -9 5 -12 4 -7 -3 9 -15 49 -15 63 -1 12 12 93 22 93
11 0 -4 11 -12 25 -19 14 -6 25 -7 25 -3 0 5 14 11 31 15 30 7 116 59 131 80
5 7 8 7 8 0 0 -5 5 -3 10 5 6 9 10 11 10 3 0 -7 7 -10 15 -7 13 5 12 9 -5 24
-20 18 -20 18 5 22 17 4 26 0 30 -12 4 -13 15 -17 37 -16 22 1 33 -4 35 -15 3
-12 -6 -15 -39 -16 -90 -2 -90 -2 -84 -18 4 -11 -2 -15 -20 -15 -14 0 -23 -3
-21 -7 3 -5 -9 -9 -26 -9 -16 -1 -35 -8 -41 -15 -21 -28 -97 -53 -164 -54 -38
-1 -68 -7 -70 -13 -2 -6 -11 -9 -20 -6 -15 5 -15 4 1 -9 15 -12 15 -16 3 -20
-9 -4 -17 2 -21 14 -5 14 -12 18 -23 14 -13 -5 -12 -2 3 15 16 18 17 20 1 20
-9 0 -19 -7 -22 -15 -4 -8 -10 -15 -15 -15 -5 0 -4 12 1 26 7 16 7 23 0 19 -6
-4 -10 13 -10 44 0 41 3 49 15 45 11 -5 14 0 13 19 -2 24 -3 25 -30 11 -22
-11 -28 -12 -28 -2 0 7 -3 24 -7 37 -4 18 -3 22 6 16 9 -5 12 -2 9 11 -2 11
-9 18 -16 17 -6 -2 3 18 19 42 17 25 35 43 40 40 5 -4 9 0 9 7 0 7 6 2 13 -11
14 -28 34 -38 34 -18 0 19 42 87 54 87 5 0 9 -4 9 -10z m1120 -67 c0 -9 -28
-11 -112 -8 -65 3 -107 1 -100 -4 18 -11 272 -13 272 -2 0 5 9 11 20 14 11 3
20 1 20 -4 0 -5 -7 -9 -16 -9 -8 0 -12 -5 -9 -10 4 -6 10 -8 15 -5 11 7 27
-56 28 -105 0 -19 3 -47 5 -62 5 -25 4 -26 -14 -15 -10 6 -18 16 -18 22 3 27
-3 35 -27 35 -30 0 -22 -20 9 -21 57 -3 -73 -17 -198 -21 -77 -3 -120 -2 -95
2 l45 7 -40 2 c-22 1 -74 6 -116 9 -60 6 -76 5 -72 -5 3 -7 1 -13 -4 -13 -5 0
-9 10 -11 23 -1 18 8 28 41 44 35 17 56 20 136 16 51 -2 101 -7 110 -11 9 -4
56 -6 104 -4 78 3 87 5 70 17 -17 13 -16 14 7 8 14 -3 30 -10 37 -15 7 -5 14
-5 17 1 4 5 2 12 -3 16 -6 3 -8 12 -5 19 4 12 -26 13 -175 11 -99 -2 -184 -6
-190 -9 -5 -3 -22 -1 -38 5 l-28 12 25 7 c24 8 24 8 -5 9 l-30 1 29 15 c15 8
39 13 51 11 14 -3 26 1 29 9 6 16 33 20 148 20 63 0 88 -4 88 -12z m359 -125
c22 0 43 -4 47 -9 9 -16 -5 -24 -18 -11 -7 7 -17 12 -22 12 -18 -1 27 -30 45
-30 10 0 25 -7 33 -16 10 -10 16 -11 16 -3 0 8 4 8 13 2 15 -13 84 -27 114
-24 12 1 30 -2 40 -8 10 -6 12 -11 6 -11 -7 0 -20 -15 -29 -32 -15 -29 -18
-31 -24 -13 -7 19 -7 19 -19 0 -10 -16 -11 -16 -7 -2 3 9 1 17 -4 17 -5 0 -12
-9 -15 -20 -9 -29 -23 -25 -17 5 2 14 0 25 -7 25 -6 0 -18 -11 -27 -25 -20
-30 -44 -33 -44 -5 0 11 4 20 9 20 5 0 11 9 14 21 5 17 1 16 -21 -8 -15 -15
-25 -32 -24 -36 1 -5 -3 -7 -10 -4 -7 2 -12 11 -10 20 1 9 -7 21 -18 27 -15 8
-20 8 -21 -2 -1 -7 -5 1 -9 17 -6 24 -8 26 -9 8 0 -13 -6 -23 -12 -23 -5 0 -7
5 -4 10 3 6 1 10 -4 10 -6 0 -11 -6 -11 -12 0 -10 -2 -10 -8 -2 -4 7 -20 10
-35 9 -22 -3 -26 -1 -17 10 8 10 8 15 -1 21 -7 4 -9 3 -6 -3 4 -6 1 -13 -7
-16 -10 -4 -13 2 -12 23 3 38 10 44 50 42 31 -2 34 0 29 20 -3 17 -2 19 5 9 6
-8 27 -13 51 -13z m-963 -55 c4 -16 7 -31 6 -35 -2 -7 64 -2 77 7 4 2 8 -3 8
-11 0 -12 -12 -14 -52 -13 -60 3 -75 -4 -75 -34 1 -22 1 -22 15 -3 15 19 15
19 17 -5 3 -63 -7 -95 -33 -102 -11 -3 -19 -9 -18 -14 1 -4 1 -18 0 -31 -1
-19 -3 -21 -15 -10 -12 11 -12 18 0 46 7 18 10 30 5 28 -4 -3 -8 19 -8 49 0
43 4 55 16 55 14 0 14 2 1 10 -9 6 -10 10 -3 10 12 0 11 19 -2 52 -4 11 -1 18
12 21 35 9 41 7 49 -20z m-144 -102 c2 -22 0 -37 -4 -35 -5 3 -8 -13 -8 -35 0
-23 5 -41 10 -41 6 0 10 -7 10 -15 0 -8 -4 -15 -9 -15 -5 0 -12 -7 -15 -16 -5
-13 -1 -15 21 -10 l28 7 -21 -18 c-22 -18 -41 -113 -23 -113 5 0 9 6 9 13 0 6
5 4 11 -7 10 -17 13 -16 27 14 8 17 26 38 38 47 28 18 110 23 107 7 -1 -7 7
-14 17 -17 11 -3 18 -1 14 4 -3 5 28 9 70 9 42 0 76 4 76 8 0 9 21 8 225 -5
115 -7 123 -9 70 -14 -52 -5 -46 -6 41 -7 79 -2 104 1 114 13 7 8 16 12 21 9
5 -3 9 -3 9 1 0 13 -60 27 -125 27 l-70 1 60 8 c78 11 90 17 38 18 -23 1 -44
5 -47 9 -3 5 8 6 24 4 17 -2 47 -1 67 4 l38 7 -30 7 c-16 4 5 6 48 4 72 -4 77
-3 77 17 0 11 5 17 10 14 6 -3 10 3 10 14 0 11 -8 22 -17 24 -14 4 -12 5 5 6
21 1 26 10 23 38 -1 6 2 14 7 17 5 3 8 -25 7 -61 -2 -37 1 -78 5 -92 10 -37
-9 -53 -34 -29 -11 10 -29 18 -40 18 -19 0 -19 0 -1 -14 11 -8 23 -12 27 -10
5 3 9 -1 9 -8 1 -7 2 -20 3 -28 0 -8 9 -14 18 -14 9 1 19 -5 22 -13 4 -9 2
-11 -6 -7 -7 5 -9 -1 -6 -20 3 -16 0 -33 -9 -42 -8 -8 -10 -14 -4 -14 5 0 19
13 31 30 19 27 19 29 3 24 -15 -5 -15 -4 -3 5 11 7 21 6 38 -5 12 -8 27 -12
32 -9 5 3 12 -4 15 -16 5 -16 12 -19 31 -15 14 4 24 2 24 -4 0 -6 4 -8 10 -5
6 4 7 -1 3 -11 -4 -12 -3 -15 5 -10 7 4 12 2 12 -3 0 -16 -16 -13 -30 4 -14
17 -23 13 -26 -10 -1 -8 4 -11 11 -9 8 3 19 -4 25 -16 6 -11 14 -19 18 -16 4
2 15 -7 24 -19 17 -23 17 -24 -2 -30 -11 -4 -17 -11 -14 -17 5 -8 1 -9 -10 -5
-9 4 -14 3 -11 -2 3 -5 1 -13 -5 -16 -16 -10 -47 35 -44 62 1 13 -2 21 -7 17
-5 -3 -9 -13 -9 -22 0 -13 -2 -14 -9 -4 -7 11 -9 11 -14 -2 -4 -11 -1 -16 11
-16 15 0 15 -2 2 -11 -12 -8 -11 -9 6 -4 14 4 24 0 28 -10 3 -8 2 -15 -3 -15
-5 0 -11 -11 -13 -25 -4 -21 -2 -24 12 -20 10 3 25 -1 34 -10 13 -13 19 -14
38 -3 13 7 26 12 29 11 3 -1 6 5 6 12 0 12 -3 12 -16 2 -12 -10 -14 -9 -8 5 3
9 1 19 -6 21 -9 3 -8 8 2 20 16 21 35 22 28 3 -4 -10 0 -12 14 -9 24 7 25 32
2 49 -17 12 -17 14 1 31 13 12 17 13 12 3 -4 -8 0 -6 8 4 9 11 16 14 16 8 0
-7 6 -12 13 -12 24 0 14 44 -13 57 -14 7 -19 12 -12 13 7 0 10 5 6 11 -4 8 0
8 15 0 14 -8 21 -8 21 -1 0 5 10 10 23 10 12 0 18 -4 12 -8 -13 -9 -19 -29
-20 -74 0 -20 -4 -40 -8 -44 -4 -4 -7 -18 -7 -31 0 -13 -6 -39 -14 -57 -13
-32 -13 -33 6 -28 15 4 18 11 14 31 -3 14 -3 20 0 13 3 -6 10 -10 15 -6 5 3 5
-6 -1 -20 -5 -14 -7 -26 -5 -26 3 0 -3 -9 -12 -20 -20 -23 -30 -25 -36 -7 -2
6 -2 -1 1 -17 2 -16 0 -26 -4 -23 -5 3 -15 -1 -22 -9 -7 -8 -10 -14 -6 -14 3
0 1 -7 -6 -15 -10 -12 -9 -15 6 -15 14 -1 10 -5 -11 -15 -35 -16 -24 -19 23
-6 17 5 32 6 32 1 0 -12 -39 -56 -40 -44 0 7 -17 8 -47 5 -27 -3 -120 -4 -208
-1 l-160 6 115 4 c168 6 180 6 187 14 3 3 -23 7 -58 8 -42 1 -51 3 -26 5 62 7
46 29 -30 40 -59 9 -62 10 -25 12 23 0 42 6 42 11 0 6 12 10 26 10 14 0 23 4
19 9 -3 5 4 13 16 16 20 7 18 19 -4 21 -7 0 -21 2 -32 3 -17 1 -18 3 -5 11 13
9 13 10 0 10 -9 0 -21 -5 -26 -10 -13 -13 -129 -14 -169 -1 -25 8 -18 10 45
11 l75 2 -50 10 c-75 14 -74 24 3 21 64 -4 66 -3 42 12 -16 9 -45 14 -77 13
-29 -1 -56 1 -60 5 -3 4 11 7 33 8 l39 1 -30 9 c-40 13 -71 16 -197 23 -87 5
-109 4 -121 -9 -13 -12 -42 -15 -154 -13 -76 1 -117 3 -90 5 56 5 62 21 10 25
-31 2 -23 5 40 16 91 14 177 16 177 3 0 -5 10 -9 23 -8 12 0 73 -3 135 -6 69
-4 112 -2 112 3 0 6 -7 10 -15 10 -8 0 -25 10 -37 22 -16 16 -17 20 -5 15 9
-3 17 -2 17 3 0 6 5 9 12 8 7 -2 12 2 13 9 0 21 20 33 58 36 64 5 61 22 -3 20
-33 0 -60 3 -60 8 0 6 -5 7 -12 3 -8 -5 -9 -2 -5 9 7 18 -9 21 -80 17 -26 -1
-32 2 -27 14 4 10 1 16 -10 16 -8 0 -13 -6 -11 -12 4 -10 -33 -12 -172 -10
-112 2 -179 7 -182 14 -2 7 -6 6 -11 -2 -4 -7 -40 -12 -99 -13 -50 -1 -91 -2
-91 -3 0 -14 14 -33 21 -28 5 3 9 -3 9 -14 0 -10 -7 -19 -15 -19 -8 0 -13 2
-10 5 8 8 -16 43 -26 37 -13 -9 -40 -76 -36 -89 4 -13 -17 -36 -32 -36 -13 0
-13 2 -1 34 6 16 6 27 0 31 -6 4 -10 11 -10 16 0 6 5 7 10 4 6 -3 10 -1 10 5
0 6 5 8 12 4 7 -4 8 -3 4 4 -4 6 -13 9 -21 5 -13 -4 -14 6 -10 68 2 41 1 80
-4 88 -6 9 -5 25 0 39 7 18 6 28 -3 34 -10 6 -10 8 2 8 11 0 12 2 3 8 -7 4
-14 23 -15 42 -2 28 0 35 15 34 13 -2 15 1 7 11 -8 10 -7 14 2 18 7 3 14 6 14
6 1 1 4 -17 6 -38z m1350 -185 c13 -20 9 -26 -19 -26 -24 0 -28 -4 -28 -29 0
-17 6 -36 13 -42 9 -10 12 -10 12 -1 0 7 -4 12 -9 12 -5 0 -7 9 -4 20 3 11 9
18 13 15 5 -3 15 2 24 10 13 13 22 14 58 5 24 -7 63 -24 88 -38 25 -15 61 -34
80 -44 52 -27 108 -78 92 -85 -7 -3 -22 -15 -33 -27 -19 -20 -20 -20 -14 -1
l7 20 -17 -20 c-12 -14 -19 -16 -22 -7 -3 6 -18 12 -35 12 -24 0 -29 3 -24 16
5 14 4 15 -9 4 -12 -10 -16 -8 -26 14 -13 28 -24 33 -35 15 -4 -8 -9 -8 -17 0
-8 8 -5 15 9 26 22 17 12 19 -34 5 -28 -7 -33 -7 -28 5 3 8 1 15 -5 15 -6 0
-7 5 -3 11 5 8 1 8 -14 0 -14 -7 -23 -8 -27 -1 -4 6 -11 8 -16 5 -17 -11 -47
5 -43 23 1 9 6 38 9 63 5 42 8 46 28 41 12 -3 25 -10 29 -16z m-1453 -76 c8 0
11 -3 8 -7 -4 -3 1 -15 10 -26 17 -19 17 -20 -5 -14 -22 5 -23 4 -8 -12 20
-22 20 -27 0 -35 -8 -3 -13 -2 -10 2 2 4 -4 8 -15 8 -12 0 -15 -4 -9 -10 13
-13 13 -29 1 -21 -6 3 -8 -5 -5 -19 3 -20 -2 -26 -26 -35 -25 -8 -32 -7 -37 5
-4 11 -8 12 -19 3 -12 -10 -12 -13 2 -24 15 -10 13 -12 -15 -13 -21 0 -29 3
-25 11 4 7 3 8 -2 4 -9 -9 -10 -13 -13 -41 0 -8 -8 -17 -17 -20 -8 -3 -12 -2
-9 4 3 6 2 10 -3 10 -20 0 -21 -30 -2 -42 11 -7 20 -18 20 -24 0 -7 9 -10 23
-7 21 5 21 5 3 -9 -20 -15 -35 -12 -100 23 -13 7 -16 7 -11 0 4 -7 -4 -11 -21
-11 -15 0 -38 -10 -51 -22 -19 -17 -23 -19 -17 -5 3 9 9 17 13 17 3 0 19 11
35 25 16 13 33 22 39 18 5 -3 7 0 5 8 -3 8 -16 13 -29 11 -23 -2 -22 -1 6 18
18 12 24 20 15 21 -8 0 4 9 26 19 23 10 45 23 49 29 3 6 10 9 15 6 4 -3 6 3 4
12 -3 11 8 31 30 53 20 19 36 40 36 47 0 20 53 55 75 49 11 -3 26 -6 34 -6z
m637 -239 c-4 -5 0 -12 6 -14 7 -3 -3 -6 -22 -7 -31 -2 -32 -3 -11 -9 36 -10
38 -31 4 -32 l-28 -1 29 -7 c24 -5 26 -8 15 -17 -8 -6 -21 -14 -29 -17 -10 -5
-9 -6 5 -5 11 0 29 -3 39 -7 13 -6 21 -4 24 3 5 15 32 16 32 2 0 -5 14 -10 31
-10 20 0 28 4 23 12 -5 7 -2 9 8 5 15 -5 38 9 38 24 0 4 -10 10 -22 12 -13 2
9 5 47 5 44 1 65 -2 56 -7 -7 -5 -27 -7 -42 -4 -16 2 -29 0 -29 -4 0 -12 59
-33 96 -34 25 -2 23 -3 -11 -9 l-40 -7 40 -3 c39 -2 39 -3 10 -10 l-30 -8 33
-1 c17 0 32 -5 32 -11 0 -6 -35 -10 -82 -11 -56 0 -76 -3 -63 -9 25 -11 1 -13
-34 -3 -23 6 -24 7 -5 14 12 6 2 8 -30 6 -32 -1 -51 -7 -54 -16 -3 -9 0 -12
10 -9 8 3 36 0 64 -7 46 -12 40 -13 -81 -9 -118 4 -128 3 -108 -11 16 -12 48
-14 147 -13 69 1 128 -1 132 -4 3 -3 -122 -6 -278 -5 -156 1 -232 3 -169 4
125 4 163 18 110 42 -46 20 -34 31 34 32 l62 2 -80 8 c-55 6 -87 5 -102 -3
-17 -9 -33 -8 -65 2 -24 7 -47 14 -53 15 -5 2 2 4 18 4 15 1 27 6 27 11 0 6 8
11 18 11 15 1 15 2 -1 6 -16 4 -15 7 8 19 19 10 38 12 59 6 37 -9 111 20 80
32 -16 6 -15 8 2 21 18 14 18 14 -4 15 -13 0 -20 4 -17 10 3 6 40 10 81 10 43
0 73 -4 70 -9z"/>
</g>
</svg>
